<?xml version="1.0" encoding="UTF-8"?>
<!DOCTYPE svg PUBLIC "-//W3C//DTD SVG 1.1//EN" "http://www.w3.org/Graphics/SVG/1.1/DTD/svg11.dtd">
<svg xmlns="http://www.w3.org/2000/svg" version="1.1" width="493px" height="314px" style="shape-rendering:geometricPrecision; text-rendering:geometricPrecision; image-rendering:optimizeQuality; fill-rule:evenodd; clip-rule:evenodd" xmlns:xlink="http://www.w3.org/1999/xlink">
<g><path style="opacity:1" fill="#33e6af" d="M 90.5,97.5 C 91.1667,98.5 91.8333,99.5 92.5,100.5C 93.7846,103.589 94.4512,106.922 94.5,110.5C 94.7373,111.791 94.404,112.791 93.5,113.5C 89.4351,109.711 84.7684,108.711 79.5,110.5C 77.5,110.5 76.5,111.5 76.5,113.5C 75.5174,120.226 78.3508,123.893 85,124.5C 88.2003,123.932 91.3669,123.265 94.5,122.5C 96.3079,123.918 96.9746,125.918 96.5,128.5C 96.348,132.924 95.6813,137.257 94.5,141.5C 93.8333,141.5 93.1667,141.5 92.5,141.5C 92.6882,139.897 92.1882,138.563 91,137.5C 77.6067,151.117 64.6067,150.784 52,136.5C 44.6906,123.22 46.524,111.387 57.5,101C 67.9494,95.235 78.4494,95.0683 89,100.5C 89.5133,99.4734 90.0133,98.4734 90.5,97.5 Z"/></g>
<g><path style="opacity:0.373" fill="#669587" d="M 114.5,98.5 C 116.966,97.3659 119.633,97.1993 122.5,98C 121.756,99.0386 120.756,99.5386 119.5,99.5C 118.081,98.5489 116.415,98.2155 114.5,98.5 Z"/></g>
<g><path style="opacity:0.561" fill="#5ea691" d="M 107.5,98.5 C 105.167,99.1667 102.833,99.8333 100.5,100.5C 99.7109,100.217 99.0442,99.7172 98.5,99C 101.482,98.502 104.482,98.3354 107.5,98.5 Z"/></g>
<g><path style="opacity:1" fill="#36e4af" d="M 107.5,98.5 C 109.833,98.5 112.167,98.5 114.5,98.5C 116.415,98.2155 118.081,98.5489 119.5,99.5C 117.856,100.316 116.69,101.65 116,103.5C 114.194,107.72 113.194,112.053 113,116.5C 120.402,110.271 128.069,109.937 136,115.5C 141.339,125.104 140.172,133.937 132.5,142C 133.527,142.513 134.527,143.013 135.5,143.5C 135.5,144.167 135.5,144.833 135.5,145.5C 130.204,146.509 124.871,146.676 119.5,146C 123.203,142.604 124.369,138.437 123,133.5C 120.258,130.896 117.758,131.229 115.5,134.5C 114.607,137.084 114.274,139.751 114.5,142.5C 113.9,143.9 112.9,144.9 111.5,145.5C 110.833,145.5 110.167,145.5 109.5,145.5C 107.143,145.663 104.81,145.497 102.5,145C 103,144.5 103.5,144 104,143.5C 104.825,132.992 104.659,122.658 103.5,112.5C 103.823,108.774 103.489,105.107 102.5,101.5C 101.817,101.137 101.15,100.804 100.5,100.5C 102.833,99.8333 105.167,99.1667 107.5,98.5 Z"/></g>
<g><path style="opacity:1" fill="#34e5af" d="M 278.5,98.5 C 280.369,100.635 281.036,103.302 280.5,106.5C 279.164,118.516 277.997,130.516 277,142.5C 278.47,143.267 279.97,143.933 281.5,144.5C 281.5,144.833 281.5,145.167 281.5,145.5C 273.889,146.434 266.222,146.767 258.5,146.5C 257.833,146.5 257.5,146.167 257.5,145.5C 258.973,144.26 260.64,143.26 262.5,142.5C 263.497,135.866 263.83,129.2 263.5,122.5C 264.117,116.402 263.45,110.735 261.5,105.5C 260.5,105.5 259.5,105.5 258.5,105.5C 258.833,104.833 259.167,104.167 259.5,103.5C 265.695,101.368 272.028,99.7011 278.5,98.5 Z"/></g>
<g><path style="opacity:0.875" fill="#5cb498" d="M 278.5,98.5 C 279.601,97.4017 280.934,97.235 282.5,98C 281.872,100.939 281.205,103.772 280.5,106.5C 281.036,103.302 280.369,100.635 278.5,98.5 Z"/></g>
<g><path style="opacity:0.937" fill="#469b7f" d="M 90.5,97.5 C 90.56,96.9569 90.8933,96.6236 91.5,96.5C 92.4287,97.6888 92.762,99.0222 92.5,100.5C 91.8333,99.5 91.1667,98.5 90.5,97.5 Z"/></g>
<g><path style="opacity:1" fill="#3eddab" d="M 151.5,98.5 C 157.464,98.0329 162.964,99.3662 168,102.5C 168.56,105.96 167.06,108.127 163.5,109C 157.747,109.851 152.08,109.517 146.5,108C 143.8,107.051 142.967,105.217 144,102.5C 146.255,100.501 148.755,99.1679 151.5,98.5 Z"/></g>
<g><path style="opacity:0.498" fill="#5da590" d="M 259.5,103.5 C 259.167,104.167 258.833,104.833 258.5,105.5C 256.207,104.699 256.54,104.032 259.5,103.5 Z"/></g>
<g><path style="opacity:0.059" fill="#6a8f85" d="M 79.5,110.5 C 78.8333,111.833 77.8333,112.833 76.5,113.5C 76.5,111.5 77.5,110.5 79.5,110.5 Z"/></g>
<g><path style="opacity:0.686" fill="#59b095" d="M 147.5,112.5 C 154.989,111.344 162.655,111.178 170.5,112C 168.068,113.087 168.402,113.587 171.5,113.5C 170.833,114.167 170.167,114.833 169.5,115.5C 167.565,114.85 165.565,114.517 163.5,114.5C 163.918,113.778 164.584,113.278 165.5,113C 159.509,112.501 153.509,112.334 147.5,112.5 Z"/></g>
<g><path style="opacity:0.812" fill="#5eae95" d="M 183.5,112.5 C 186.976,111.357 190.642,111.19 194.5,112C 193.756,113.039 192.756,113.539 191.5,113.5C 189.052,112.527 186.385,112.194 183.5,112.5 Z"/></g>
<g><path style="opacity:1" fill="#38e3ae" d="M 254.5,114.5 C 253.186,116.915 252.519,119.748 252.5,123C 252.502,126.021 252.836,128.854 253.5,131.5C 252.784,136.438 254.117,140.605 257.5,144C 256.944,144.383 256.611,144.883 256.5,145.5C 251.814,145.838 247.147,146.005 242.5,146C 243.567,143.902 244.067,141.735 244,139.5C 236.275,148.325 228.275,148.658 220,140.5C 216.277,131.792 216.943,123.459 222,115.5C 229.822,109.748 237.156,110.415 244,117.5C 243.626,115.231 243.626,112.898 244,110.5C 248.471,111.259 252.971,112.092 257.5,113C 256.756,114.039 255.756,114.539 254.5,114.5 Z M 234.5,120.5 C 238.019,121.183 240.519,123.183 242,126.5C 240.906,131.49 238.572,131.823 235,127.5C 234.503,125.19 234.337,122.857 234.5,120.5 Z"/></g>
<g><path style="opacity:0.184" fill="#6e9388" d="M 261.5,105.5 C 263.45,110.735 264.117,116.402 263.5,122.5C 262.793,116.934 262.126,111.268 261.5,105.5 Z"/></g>
<g><path style="opacity:0.184" fill="#6d9287" d="M 292.5,112.5 C 294.693,111.203 297.027,111.203 299.5,112.5C 299.376,113.107 299.043,113.44 298.5,113.5C 296.735,112.539 294.735,112.205 292.5,112.5 Z"/></g>
<g><path style="opacity:1" fill="#3be0ad" d="M 420.5,110.5 C 424.921,111.042 429.088,112.376 433,114.5C 434.737,113.38 436.571,112.38 438.5,111.5C 438.833,111.833 439.167,112.167 439.5,112.5C 437.374,115.919 435.374,119.419 433.5,123C 430.874,121.372 427.874,120.205 424.5,119.5C 420.369,119.742 419.703,121.242 422.5,124C 428.672,124.686 434.672,126.019 440.5,128C 444.41,132.594 444.41,137.261 440.5,142C 430.161,147.826 419.661,147.992 409,142.5C 407.037,143.625 405.204,144.959 403.5,146.5C 403.96,141.99 405.127,137.324 407,132.5C 410.711,136.444 415.211,138.277 420.5,138C 422.515,136.445 422.848,134.611 421.5,132.5C 416.632,131.616 411.965,130.116 407.5,128C 404.433,122.8 405.1,118.133 409.5,114C 413.102,112.243 416.768,111.076 420.5,110.5 Z"/></g>
<g><path style="opacity:1" fill="#34e5af" d="M 147.5,112.5 C 153.509,112.334 159.509,112.501 165.5,113C 164.584,113.278 163.918,113.778 163.5,114.5C 162.5,114.5 161.5,114.5 160.5,114.5C 160.216,116.415 160.549,118.081 161.5,119.5C 162.987,127.071 164.153,134.737 165,142.5C 167.071,143.525 169.238,144.358 171.5,145C 168.183,145.498 164.85,145.665 161.5,145.5C 154.978,145.823 148.645,145.49 142.5,144.5C 143.172,143.733 144.005,143.066 145,142.5C 145.641,134.301 146.475,126.134 147.5,118C 144.971,115.592 141.971,113.925 138.5,113C 141.482,112.502 144.482,112.335 147.5,112.5 Z"/></g>
<g><path style="opacity:1" fill="#36e4ae" d="M 183.5,112.5 C 186.385,112.194 189.052,112.527 191.5,113.5C 190.859,114.482 190.193,115.482 189.5,116.5C 190.811,120.389 191.478,124.389 191.5,128.5C 191.231,130.429 191.731,132.095 193,133.5C 193.464,132.906 193.631,132.239 193.5,131.5C 195.153,126.854 196.82,122.188 198.5,117.5C 197.687,116.186 196.687,115.019 195.5,114C 198.482,113.502 201.482,113.335 204.5,113.5C 209.032,113.182 213.366,113.515 217.5,114.5C 211.335,123.207 205.668,132.374 200.5,142C 201.373,143.045 202.373,143.878 203.5,144.5C 196.352,145.492 189.019,145.825 181.5,145.5C 175.221,145.532 175.221,144.365 181.5,142C 177.77,132.946 173.77,124.113 169.5,115.5C 170.167,114.833 170.833,114.167 171.5,113.5C 175.434,112.64 179.434,112.307 183.5,112.5 Z"/></g>
<g><path style="opacity:0.686" fill="#5ba690" d="M 204.5,113.5 C 209.985,112.348 215.651,112.182 221.5,113C 220.255,113.791 218.922,114.291 217.5,114.5C 213.366,113.515 209.032,113.182 204.5,113.5 Z"/></g>
<g><path style="opacity:1" fill="#38e2ae" d="M 295.5,145.5 C 291.629,145.815 287.962,145.482 284.5,144.5C 286.203,134.929 287.036,125.262 287,115.5C 285.581,114.54 284.081,113.707 282.5,113C 285.817,112.502 289.15,112.335 292.5,112.5C 294.735,112.205 296.735,112.539 298.5,113.5C 298.351,114.552 298.517,115.552 299,116.5C 305.128,110.415 311.461,110.082 318,115.5C 319.333,114.167 320.667,112.833 322,111.5C 321.436,118.755 319.77,125.755 317,132.5C 312.701,127.552 307.534,126.385 301.5,129C 297.105,134.907 297.772,140.24 303.5,145C 300.854,145.497 298.187,145.664 295.5,145.5 Z"/></g>
<g><path style="opacity:1" fill="#36e4af" d="M 334.5,111.5 C 352.355,109.193 360.521,116.86 359,134.5C 351.76,147.092 341.594,149.926 328.5,143C 322.326,136.559 320.826,129.059 324,120.5C 326.468,116.199 329.968,113.199 334.5,111.5 Z M 338.5,117.5 C 342.164,118.867 342.497,121.034 339.5,124C 336.431,125.91 333.431,125.91 330.5,124C 332.776,121.211 335.443,119.044 338.5,117.5 Z"/></g>
<g><path style="opacity:0.937" fill="#54be9c" d="M 379.5,113.5 C 375.031,113.086 370.364,113.086 365.5,113.5C 370.332,111.942 375.332,111.609 380.5,112.5C 380.376,113.107 380.043,113.44 379.5,113.5 Z"/></g>
<g><path style="opacity:1" fill="#37e3ae" d="M 379.5,113.5 C 376.732,117.274 376.232,121.274 378,125.5C 386.616,126.268 388.782,122.601 384.5,114.5C 388.355,112.997 392.355,112.33 396.5,112.5C 396.5,113.5 396.5,114.5 396.5,115.5C 396.624,117.61 397.791,119.61 400,121.5C 404.457,137.736 398.123,146.069 381,146.5C 366.117,146.293 360.117,138.959 363,124.5C 364.439,121.397 366.273,118.564 368.5,116C 366.212,115.178 363.878,114.511 361.5,114C 362.793,113.51 364.127,113.343 365.5,113.5C 370.364,113.086 375.031,113.086 379.5,113.5 Z"/></g>
<g><path style="opacity:1" fill="#5dba9c" d="M 396.5,115.5 C 396.5,114.5 396.5,113.5 396.5,112.5C 402.864,111.241 402.864,112.241 396.5,115.5 Z"/></g>
<g><path style="opacity:0.749" fill="#53907c" d="M 94.5,110.5 C 95.6129,111.946 95.7796,113.613 95,115.5C 94.2828,114.956 93.7828,114.289 93.5,113.5C 94.404,112.791 94.7373,111.791 94.5,110.5 Z"/></g>
<g><path style="opacity:0.247" fill="#5c9785" d="M 163.5,114.5 C 162.032,115.779 161.365,117.446 161.5,119.5C 160.549,118.081 160.216,116.415 160.5,114.5C 161.5,114.5 162.5,114.5 163.5,114.5 Z"/></g>
<g><path style="opacity:0.059" fill="#778584" d="M 96.5,121.5 C 96.56,120.957 96.8933,120.624 97.5,120.5C 98.7733,121.257 98.7733,121.923 97.5,122.5C 97.5,121.833 97.1667,121.5 96.5,121.5 Z"/></g>
<g><path style="opacity:0.937" fill="#5bbc9d" d="M 94.5,122.5 C 94.8417,121.662 95.5084,121.328 96.5,121.5C 97.1667,121.5 97.5,121.833 97.5,122.5C 97.7947,124.735 97.4614,126.735 96.5,128.5C 96.9746,125.918 96.3079,123.918 94.5,122.5 Z"/></g>
<g><path style="opacity:0.498" fill="#55b799" d="M 103.5,112.5 C 104.659,122.658 104.825,132.992 104,143.5C 103.5,144 103,144.5 102.5,145C 104.81,145.497 107.143,145.663 109.5,145.5C 106.437,146.201 103.27,146.868 100,147.5C 99.5,147 99,146.5 98.5,146C 100.286,145.215 101.786,144.049 103,142.5C 103.5,132.506 103.666,122.506 103.5,112.5 Z"/></g>
<g><path style="opacity:0.749" fill="#53b999" d="M 254.5,114.5 C 253.548,120.075 253.214,125.741 253.5,131.5C 252.836,128.854 252.502,126.021 252.5,123C 252.519,119.748 253.186,116.915 254.5,114.5 Z"/></g>
<g><path style="opacity:0.749" fill="#56a08a" d="M 191.5,128.5 C 192.167,129.5 192.833,130.5 193.5,131.5C 193.631,132.239 193.464,132.906 193,133.5C 191.731,132.095 191.231,130.429 191.5,128.5 Z"/></g>
<g><path style="opacity:0.435" fill="#64a492" d="M 92.5,141.5 C 93.1667,141.5 93.8333,141.5 94.5,141.5C 93.8333,145.5 93.1667,145.5 92.5,141.5 Z"/></g>
<g><path style="opacity:0.812" fill="#58a088" d="M 114.5,142.5 C 115.267,143.172 115.934,144.005 116.5,145C 114.866,145.494 113.199,145.66 111.5,145.5C 112.9,144.9 113.9,143.9 114.5,142.5 Z"/></g>
<g><path style="opacity:0.435" fill="#60a892" d="M 135.5,143.5 C 137.764,144.219 140.097,144.552 142.5,144.5C 148.645,145.49 154.978,145.823 161.5,145.5C 152.975,146.759 144.308,146.759 135.5,145.5C 135.5,144.833 135.5,144.167 135.5,143.5 Z"/></g>
<g><path style="opacity:0.498" fill="#5dac94" d="M 203.5,144.5 C 204.473,144.987 205.473,145.487 206.5,146C 197.99,146.823 189.656,146.657 181.5,145.5C 189.019,145.825 196.352,145.492 203.5,144.5 Z"/></g>
<g><path style="opacity:0.624" fill="#5fa992" d="M 281.5,145.5 C 281.5,145.167 281.5,144.833 281.5,144.5C 282.5,144.5 283.5,144.5 284.5,144.5C 287.962,145.482 291.629,145.815 295.5,145.5C 290.934,146.797 286.267,146.797 281.5,145.5 Z"/></g>
<g><path style="opacity:0.059" fill="#748a87" d="M 256.5,145.5 C 256.833,145.5 257.167,145.5 257.5,145.5C 257.5,146.167 257.833,146.5 258.5,146.5C 257.377,147.757 256.711,147.424 256.5,145.5 Z"/></g>
<g><path style="opacity:0.122" fill="#687e77" d="M 136.5,181.5 C 135.209,181.263 134.209,181.596 133.5,182.5C 132.249,181.528 132.582,180.861 134.5,180.5C 135.416,180.543 136.083,180.876 136.5,181.5 Z"/></g>
<g><path style="opacity:1" fill="#39e2ae" d="M 136.5,181.5 C 148.62,181.859 160.62,183.026 172.5,185C 167.98,187.007 163.313,188.507 158.5,189.5C 160.497,199.152 162.497,208.819 164.5,218.5C 166.164,220.995 168.33,222.995 171,224.5C 171.417,221.578 172.417,218.911 174,216.5C 177.074,219.538 180.74,221.538 185,222.5C 189.194,221.315 190.027,219.149 187.5,216C 182.194,215.28 177.361,213.447 173,210.5C 170.673,205.141 171.839,200.641 176.5,197C 184.477,193.351 192.143,193.851 199.5,198.5C 200.183,198.137 200.85,197.804 201.5,197.5C 202.833,197.5 203.5,198.167 203.5,199.5C 202.657,202.516 201.157,205.183 199,207.5C 196.711,204.938 193.877,203.271 190.5,202.5C 185.848,203.906 185.514,205.74 189.5,208C 196.016,208.235 202.183,209.735 208,212.5C 211.469,220.701 208.969,226.201 200.5,229C 192.022,231.369 183.856,230.536 176,226.5C 173.845,227.579 171.845,228.913 170,230.5C 169.161,229.376 167.994,228.709 166.5,228.5C 158.87,229.63 151.204,230.296 143.5,230.5C 140.615,230.806 137.948,230.473 135.5,229.5C 136.508,227.661 138.008,226.328 140,225.5C 140.931,213.922 142.097,202.422 143.5,191C 139.975,188.302 136.642,185.469 133.5,182.5C 134.209,181.596 135.209,181.263 136.5,181.5 Z"/></g>
<g><path style="opacity:0.31" fill="#61a590" d="M 345.5,182.5 C 343.265,182.205 341.265,182.539 339.5,183.5C 338.711,183.217 338.044,182.717 337.5,182C 340.367,181.199 343.034,181.366 345.5,182.5 Z"/></g>
<g><path style="opacity:1" fill="#38e3af" d="M 224.5,229.5 C 219.968,229.818 215.634,229.485 211.5,228.5C 212.315,227.163 213.482,226.163 215,225.5C 215.356,213.319 214.856,201.319 213.5,189.5C 212.5,188.833 211.5,188.167 210.5,187.5C 218.064,185.4 225.564,183.067 233,180.5C 232.303,194.884 230.803,209.218 228.5,223.5C 228.833,224.5 229.167,225.5 229.5,226.5C 231.333,227.052 233,227.885 234.5,229C 231.183,229.498 227.85,229.665 224.5,229.5 Z"/></g>
<g><path style="opacity:1" fill="#39e2ae" d="M 345.5,182.5 C 348.167,182.5 350.833,182.5 353.5,182.5C 354.5,183.167 355.5,183.833 356.5,184.5C 355.883,184.611 355.383,184.944 355,185.5C 354.806,198.366 354.306,211.199 353.5,224C 353.978,225.303 354.645,226.469 355.5,227.5C 352.316,229.414 348.649,230.08 344.5,229.5C 334.945,230.743 326.778,228.077 320,221.5C 316.9,215.792 316.734,210.125 319.5,204.5C 320.906,204.027 321.573,203.027 321.5,201.5C 326.161,195.353 332.161,193.853 339.5,197C 341.09,198.046 342.59,199.213 344,200.5C 343.703,194.515 342.203,188.848 339.5,183.5C 341.265,182.539 343.265,182.205 345.5,182.5 Z M 334.5,203.5 C 339.202,204.869 342.202,207.869 343.5,212.5C 336.5,213.5 333.5,210.5 334.5,203.5 Z"/></g>
<g><path style="opacity:0.31" fill="#689a8c" d="M 353.5,182.5 C 355.429,182.231 357.095,182.731 358.5,184C 357.906,184.464 357.239,184.631 356.5,184.5C 355.5,183.833 354.5,183.167 353.5,182.5 Z"/></g>
<g><path style="opacity:0.373" fill="#5daa92" d="M 210.5,187.5 C 211.5,188.167 212.5,188.833 213.5,189.5C 211.571,189.769 209.905,189.269 208.5,188C 209.094,187.536 209.761,187.369 210.5,187.5 Z"/></g>
<g><path style="opacity:0.373" fill="#659687" d="M 266.5,195.5 C 264.517,195.157 263.183,195.824 262.5,197.5C 261.596,196.791 261.263,195.791 261.5,194.5C 263.415,194.216 265.081,194.549 266.5,195.5 Z"/></g>
<g><path style="opacity:1" fill="#39e2ae" d="M 262.5,197.5 C 263.183,195.824 264.517,195.157 266.5,195.5C 267.833,195.5 269.167,195.5 270.5,195.5C 271.833,196.167 273.167,196.833 274.5,197.5C 273.85,197.804 273.183,198.137 272.5,198.5C 271.392,207.508 271.559,216.508 273,225.5C 274.045,226.373 274.878,227.373 275.5,228.5C 270.833,229.167 266.167,229.833 261.5,230.5C 263.816,222.573 262.483,221.74 257.5,228C 243.839,232.994 236.506,228.161 235.5,213.5C 235.606,207.005 237.939,201.505 242.5,197C 249.807,193.317 256.307,194.484 262,200.5C 262.483,199.552 262.649,198.552 262.5,197.5 Z M 253.5,203.5 C 257.467,205.896 259.8,209.062 260.5,213C 253.23,213.652 250.897,210.485 253.5,203.5 Z"/></g>
<g><path style="opacity:0.812" fill="#54ab90" d="M 282.5,196.5 C 285.687,195.194 289.02,195.194 292.5,196.5C 292.376,197.107 292.043,197.44 291.5,197.5C 288.713,196.523 285.713,196.19 282.5,196.5 Z"/></g>
<g><path style="opacity:0.122" fill="#678c81" d="M 270.5,195.5 C 272.903,195.448 275.236,195.781 277.5,196.5C 277.5,197.167 277.5,197.833 277.5,198.5C 276.609,197.89 275.609,197.557 274.5,197.5C 273.167,196.833 271.833,196.167 270.5,195.5 Z"/></g>
<g><path style="opacity:1" fill="#35e4af" d="M 312.5,227.5 C 310.833,228.167 309.167,228.833 307.5,229.5C 305.833,229.5 304.167,229.5 302.5,229.5C 301.127,229.657 299.793,229.49 298.5,229C 299.252,228.329 299.586,227.496 299.5,226.5C 300.435,223.887 300.602,221.221 300,218.5C 297.474,214.614 294.808,214.614 292,218.5C 291.107,221.916 291.607,225.083 293.5,228C 289.94,229.237 286.273,229.737 282.5,229.5C 280.801,229.66 279.134,229.494 277.5,229C 278.823,228.184 279.489,227.017 279.5,225.5C 279.412,218.647 279.746,211.814 280.5,205C 280.167,203.167 279.833,201.333 279.5,199.5C 278.817,199.137 278.15,198.804 277.5,198.5C 277.5,197.833 277.5,197.167 277.5,196.5C 279.167,196.5 280.833,196.5 282.5,196.5C 285.713,196.19 288.713,196.523 291.5,197.5C 291.369,198.239 291.536,198.906 292,199.5C 292.671,198.748 293.504,198.414 294.5,198.5C 296.027,198.573 297.027,197.906 297.5,196.5C 311.73,193.898 317.563,199.898 315,214.5C 314.097,218.805 312.263,222.639 309.5,226C 310.527,226.513 311.527,227.013 312.5,227.5 Z"/></g>
<g><path style="opacity:0.498" fill="#61af98" d="M 203.5,199.5 C 203.5,198.167 202.833,197.5 201.5,197.5C 202.635,195.912 203.969,195.579 205.5,196.5C 205.058,197.739 204.391,198.739 203.5,199.5 Z"/></g>
<g><path style="opacity:0.749" fill="#5da58d" d="M 297.5,196.5 C 297.027,197.906 296.027,198.573 294.5,198.5C 294.973,197.094 295.973,196.427 297.5,196.5 Z"/></g>
<g><path style="opacity:0.498" fill="#5c9c87" d="M 321.5,201.5 C 321.573,203.027 320.906,204.027 319.5,204.5C 319.427,202.973 320.094,201.973 321.5,201.5 Z"/></g>
<g><path style="opacity:0.373" fill="#5cab93" d="M 312.5,227.5 C 313.756,227.461 314.756,227.961 315.5,229C 312.854,229.497 310.187,229.664 307.5,229.5C 309.167,228.833 310.833,228.167 312.5,227.5 Z"/></g>
<g><path style="opacity:0.184" fill="#64a18e" d="M 211.5,228.5 C 215.634,229.485 219.968,229.818 224.5,229.5C 219.35,230.651 214.016,230.817 208.5,230C 209.244,228.961 210.244,228.461 211.5,228.5 Z"/></g>
<g><path style="opacity:0.561" fill="#60a18c" d="M 279.5,225.5 C 279.489,227.017 278.823,228.184 277.5,229C 279.134,229.494 280.801,229.66 282.5,229.5C 281.551,230.152 280.385,230.486 279,230.5C 277.319,230.392 276.152,229.725 275.5,228.5C 276.833,227.5 278.167,226.5 279.5,225.5 Z"/></g>
<g><path style="opacity:0.059" fill="#6b9086" d="M 299.5,226.5 C 299.586,227.496 299.252,228.329 298.5,229C 299.793,229.49 301.127,229.657 302.5,229.5C 301.081,230.451 299.415,230.784 297.5,230.5C 297.229,228.62 297.896,227.287 299.5,226.5 Z"/></g>
<g><path style="opacity:0.498" fill="#5cae95" d="M 355.5,227.5 C 356.267,228.172 356.934,229.005 357.5,230C 352.98,230.814 348.646,230.647 344.5,229.5C 348.649,230.08 352.316,229.414 355.5,227.5 Z"/></g>
<g><path style="opacity:0.749" fill="#61ac93" d="M 135.5,229.5 C 137.948,230.473 140.615,230.806 143.5,230.5C 140.36,231.641 137.027,231.808 133.5,231C 134.044,230.283 134.711,229.783 135.5,229.5 Z"/></g>
</svg>
