<?xml version="1.0" encoding="UTF-8"?>
<!DOCTYPE svg PUBLIC "-//W3C//DTD SVG 1.1//EN" "http://www.w3.org/Graphics/SVG/1.1/DTD/svg11.dtd">
<svg xmlns="http://www.w3.org/2000/svg" version="1.1" width="200px" height="100px" style="shape-rendering:geometricPrecision; text-rendering:geometricPrecision; image-rendering:optimizeQuality; fill-rule:evenodd; clip-rule:evenodd" xmlns:xlink="http://www.w3.org/1999/xlink">
<g><path style="opacity:0.946" fill="#080808" d="M 57.5,26.5 C 60.8333,26.5 64.1667,26.5 67.5,26.5C 67.5,28.8333 67.5,31.1667 67.5,33.5C 66.5,33.5 65.5,33.5 64.5,33.5C 63.391,33.4431 62.391,33.1098 61.5,32.5C 57.5,32.8333 57.5,33.1667 61.5,33.5C 63.1373,34.9744 64.1373,36.8077 64.5,39C 63.755,41.9922 62.5883,44.8256 61,47.5C 58.6667,48.8333 56.3333,48.8333 54,47.5C 53.9141,44.256 54.7474,41.256 56.5,38.5C 56.6716,37.5084 56.3382,36.8417 55.5,36.5C 53.3366,39.4932 51.67,42.8266 50.5,46.5C 54.4626,52.0922 58.796,52.5922 63.5,48C 64.7839,47.3162 65.9505,47.4829 67,48.5C 67.8141,50.9018 67.6474,53.2351 66.5,55.5C 63.223,56.2537 59.8897,56.7537 56.5,57C 60.865,60.8409 65.1983,64.6742 69.5,68.5C 69.5,69.5 69.5,70.5 69.5,71.5C 67.7356,72.326 66.4023,73.6593 65.5,75.5C 62.9407,75.8016 60.6074,75.4682 58.5,74.5C 56.8729,72.3702 55.0396,70.3702 53,68.5C 52.5065,66.8659 52.3398,65.1992 52.5,63.5C 49.9505,63.5608 48.4505,64.8941 48,67.5C 44.784,70.322 41.6173,72.9887 38.5,75.5C 36.8333,75.5 35.1667,75.5 33.5,75.5C 32.8333,74.1667 31.8333,73.1667 30.5,72.5C 30.5,70.8333 30.5,69.1667 30.5,67.5C 33.1161,66.5202 35.4494,65.0202 37.5,63C 37.2716,62.6012 36.9382,62.4346 36.5,62.5C 36.8333,61.5 37.5,60.8333 38.5,60.5C 40.565,60.9513 42.2317,59.9513 43.5,57.5C 39.4994,56.7014 35.4994,56.0347 31.5,55.5C 31.5,53.5 31.5,51.5 31.5,49.5C 34.2401,47.9341 36.5734,48.4341 38.5,51C 45.3303,50.6511 47.6636,47.1511 45.5,40.5C 45.5,39.8333 45.1667,39.5 44.5,39.5C 43.8645,37.2054 42.5311,35.5387 40.5,34.5C 38.3926,33.5318 36.0593,33.1984 33.5,33.5C 33.5,31.8333 33.5,30.1667 33.5,28.5C 35.1788,28.7148 36.1788,28.0481 36.5,26.5C 38.8568,26.6633 41.1902,26.4966 43.5,26C 44.2524,25.3292 44.5858,24.4959 44.5,23.5C 46.3664,22.9862 48.1997,22.3195 50,21.5C 53.2241,22.3155 55.7241,23.9822 57.5,26.5 Z"/></g>
<g><path style="opacity:0.247" fill="#555555" d="M 106.5,25.5 C 103.755,24.3991 101.089,23.0657 98.5,21.5C 94.7408,22.0792 91.4075,23.4126 88.5,25.5C 90.1969,21.7989 93.1969,20.1323 97.5,20.5C 101.595,20.3769 104.595,22.0435 106.5,25.5 Z"/></g>
<g><path style="opacity:0.95" fill="#050505" d="M 157.5,20.5 C 158.167,20.5 158.5,20.8333 158.5,21.5C 159.028,22.7206 159.695,23.8873 160.5,25C 164.821,25.499 169.154,25.6657 173.5,25.5C 174.167,25.5 174.833,25.5 175.5,25.5C 176.859,32.2292 176.525,38.8959 174.5,45.5C 167.913,49.2277 161.246,49.3944 154.5,46C 159.565,46.4269 162.898,44.2602 164.5,39.5C 164.768,37.901 164.434,36.5676 163.5,35.5C 163.262,33.5956 162.262,32.2623 160.5,31.5C 160.5,30.8333 160.167,30.5 159.5,30.5C 158.609,29.8902 157.609,29.5569 156.5,29.5C 156.973,30.9063 157.973,31.573 159.5,31.5C 163.23,35.4462 163.23,39.2795 159.5,43C 157.833,43.6667 156.167,43.6667 154.5,43C 152.083,41.3742 149.583,39.8742 147,38.5C 146.024,34.673 146.857,31.3396 149.5,28.5C 142.934,31.4202 142.101,35.4202 147,40.5C 147.226,43.095 147.726,45.595 148.5,48C 157.816,51.0338 167.149,51.2004 176.5,48.5C 177.772,48.5698 178.938,48.9032 180,49.5C 180.667,56.1667 180.667,62.8333 180,69.5C 179.427,71.6406 178.594,73.6406 177.5,75.5C 176.041,75.4326 174.708,75.7659 173.5,76.5C 170.097,74.9077 166.43,73.5744 162.5,72.5C 162.5,71.1667 162.5,69.8333 162.5,68.5C 164.048,68.1788 164.715,67.1788 164.5,65.5C 165.492,65.6716 166.158,65.3382 166.5,64.5C 168.293,64.1164 169.293,62.9497 169.5,61C 168.983,58.923 168.316,56.923 167.5,55C 161.202,54.6415 155.035,53.8081 149,52.5C 144.175,54.9206 139.342,54.9206 134.5,52.5C 134.334,44.4931 134.5,36.4931 135,28.5C 135.513,27.4734 136.013,26.4734 136.5,25.5C 139.054,24.612 141.721,24.2786 144.5,24.5C 148.602,22.2854 152.935,20.9521 157.5,20.5 Z M 148.5,41.5 C 151.957,42.0512 153.624,44.0512 153.5,47.5C 149.686,47.3491 148.019,45.3491 148.5,41.5 Z"/></g>
<g><path style="opacity:0.012" fill="#828282" d="M 57.5,26.5 C 55.7241,23.9822 53.2241,22.3155 50,21.5C 48.1997,22.3195 46.3664,22.9862 44.5,23.5C 47.8713,19.8578 51.7047,19.5245 56,22.5C 56.4101,23.9007 56.9101,25.234 57.5,26.5 Z"/></g>
<g><path style="opacity:0.919" fill="#080808" d="M 106.5,25.5 C 112.229,25.2123 117.896,25.5456 123.5,26.5C 124.492,30.7828 124.826,35.1161 124.5,39.5C 121.257,40.58 117.924,40.7466 114.5,40C 113.594,38.3005 113.261,36.4672 113.5,34.5C 109.298,34.1832 105.298,34.5166 101.5,35.5C 100.764,33.7706 99.4305,32.7706 97.5,32.5C 94.5043,30.9241 91.8376,31.2574 89.5,33.5C 88.8826,33.3893 88.3826,33.056 88,32.5C 85.6949,34.0219 84.1949,36.0219 83.5,38.5C 83.5,38.8333 83.5,39.1667 83.5,39.5C 79.9982,41.6252 76.3315,41.9585 72.5,40.5C 71.5987,39.7095 70.9321,38.7095 70.5,37.5C 71.0977,33.7775 72.0977,30.1109 73.5,26.5C 78.4053,25.5546 83.4053,25.2213 88.5,25.5C 91.4075,23.4126 94.7408,22.0792 98.5,21.5C 101.089,23.0657 103.755,24.3991 106.5,25.5 Z M 97.5,32.5 C 97.5,32.8333 97.5,33.1667 97.5,33.5C 94.8333,33.5 92.1667,33.5 89.5,33.5C 91.8376,31.2574 94.5043,30.9241 97.5,32.5 Z"/></g>
<g><path style="opacity:0.18" fill="#929292" d="M 157.5,20.5 C 152.935,20.9521 148.602,22.2854 144.5,24.5C 145.29,23.2058 146.29,22.0391 147.5,21C 150.817,20.5017 154.15,20.335 157.5,20.5 Z"/></g>
<g><path style="opacity:0.957" fill="#060606" d="M 33.5,27.5 C 32.5098,33.6446 32.1765,39.9779 32.5,46.5C 30.9519,46.8212 30.2852,47.8212 30.5,49.5C 30.5,51.5 30.5,53.5 30.5,55.5C 30.8333,56.5 31.5,57.1667 32.5,57.5C 32.5,59.8333 32.5,62.1667 32.5,64.5C 29.3049,64.5131 27.6382,66.1798 27.5,69.5C 27.7472,70.7133 28.4138,71.38 29.5,71.5C 29.5,72.1667 29.8333,72.5 30.5,72.5C 30.5,73.1667 30.5,73.8333 30.5,74.5C 28.3926,75.4682 26.0593,75.8016 23.5,75.5C 23.0133,74.5266 22.5133,73.5266 22,72.5C 21.8315,64.8117 21.3315,57.1451 20.5,49.5C 17.4246,48.6865 15.7579,46.6865 15.5,43.5C 18.1505,38.8707 20.8171,34.2041 23.5,29.5C 23.3764,28.8933 23.0431,28.56 22.5,28.5C 22.3284,27.5084 22.6618,26.8417 23.5,26.5C 23.4346,26.9382 23.6012,27.2716 24,27.5C 25.4559,23.1196 28.2892,21.7863 32.5,23.5C 33.4287,24.6888 33.762,26.0222 33.5,27.5 Z"/></g>
<g><path style="opacity:0.494" fill="#595959" d="M 36.5,26.5 C 36.1788,28.0481 35.1788,28.7148 33.5,28.5C 33.5,28.1667 33.5,27.8333 33.5,27.5C 33.762,26.0222 33.4287,24.6888 32.5,23.5C 28.2892,21.7863 25.4559,23.1196 24,27.5C 23.6012,27.2716 23.4346,26.9382 23.5,26.5C 25.1382,20.2208 28.8049,18.8874 34.5,22.5C 35.731,23.6507 35.731,24.8173 34.5,26C 35.0944,26.4643 35.7611,26.631 36.5,26.5 Z"/></g>
<g><path style="opacity:0.46" fill="#585858" d="M 158.5,21.5 C 159.922,21.7496 160.922,22.583 161.5,24C 165.688,24.1762 169.688,24.6762 173.5,25.5C 169.154,25.6657 164.821,25.499 160.5,25C 159.695,23.8873 159.028,22.7206 158.5,21.5 Z"/></g>
<g><path style="opacity:0.008" fill="#757575" d="M 73.5,26.5 C 72.0977,30.1109 71.0977,33.7775 70.5,37.5C 70.3354,34.4816 70.502,31.4816 71,28.5C 71.7083,27.6195 72.5416,26.9528 73.5,26.5 Z"/></g>
<g><path style="opacity:0.168" fill="#3d3d3d" d="M 136.5,25.5 C 136.013,26.4734 135.513,27.4734 135,28.5C 134.5,36.4931 134.334,44.4931 134.5,52.5C 134.167,52.5 133.833,52.5 133.5,52.5C 133.334,43.8269 133.5,35.1603 134,26.5C 134.671,25.7476 135.504,25.4142 136.5,25.5 Z"/></g>
<g><path style="opacity:0.039" fill="#8e8e8e" d="M 89.5,33.5 C 88.2153,35.4516 86.5486,37.1182 84.5,38.5C 84.1667,38.5 83.8333,38.5 83.5,38.5C 84.1949,36.0219 85.6949,34.0219 88,32.5C 88.3826,33.056 88.8826,33.3893 89.5,33.5 Z"/></g>
<g><path style="opacity:0.024" fill="#7e7e7e" d="M 97.5,32.5 C 99.4305,32.7706 100.764,33.7706 101.5,35.5C 101.5,35.8333 101.5,36.1667 101.5,36.5C 99.3812,36.5323 98.0478,35.5323 97.5,33.5C 97.5,33.1667 97.5,32.8333 97.5,32.5 Z"/></g>
<g><path style="opacity:0.949" fill="#050505" d="M 89.5,33.5 C 92.1667,33.5 94.8333,33.5 97.5,33.5C 98.0478,35.5323 99.3812,36.5323 101.5,36.5C 104.5,36.5 107.5,36.5 110.5,36.5C 110.591,40.5919 112.591,43.2586 116.5,44.5C 115.52,45.9814 114.353,47.3147 113,48.5C 112.333,49.1667 112.333,49.8333 113,50.5C 117.006,51.3353 120.839,52.6687 124.5,54.5C 124.5,56.8333 124.5,59.1667 124.5,61.5C 122.958,62.3007 121.292,62.634 119.5,62.5C 119.5,61.5 119.5,60.5 119.5,59.5C 118.327,57.4959 116.66,55.9959 114.5,55C 103.833,54.3333 93.1667,54.3333 82.5,55C 79.921,56.0757 78.2543,57.909 77.5,60.5C 77.5,61.8333 77.5,63.1667 77.5,64.5C 76.5,64.5 75.5,64.5 74.5,64.5C 73.0823,61.9391 72.0823,59.2724 71.5,56.5C 71.5,55.8333 71.8333,55.5 72.5,55.5C 77.1777,53.6653 81.8444,51.832 86.5,50C 82.1256,49.9059 77.7923,50.4059 73.5,51.5C 73.5,49.5 73.5,47.5 73.5,45.5C 76.8649,44.8596 80.1983,44.0262 83.5,43C 84.3366,41.9887 84.67,40.8221 84.5,39.5C 84.5,39.1667 84.5,38.8333 84.5,38.5C 86.5486,37.1182 88.2153,35.4516 89.5,33.5 Z"/></g>
<g><path style="opacity:0.944" fill="#0d0d0d" d="M 40.5,34.5 C 43.099,38.1353 44.599,42.1353 45,46.5C 43.1917,48.3959 41.025,48.8959 38.5,48C 37.3972,45.2428 35.7306,43.0762 33.5,41.5C 33.5,39.1667 33.5,36.8333 33.5,34.5C 35.8333,34.5 38.1667,34.5 40.5,34.5 Z"/></g>
<g><path style="opacity:0.2" fill="#777777" d="M 22.5,28.5 C 23.0431,28.56 23.3764,28.8933 23.5,29.5C 20.8171,34.2041 18.1505,38.8707 15.5,43.5C 15.7579,46.6865 17.4246,48.6865 20.5,49.5C 21.3315,57.1451 21.8315,64.8117 22,72.5C 22.5133,73.5266 23.0133,74.5266 23.5,75.5C 22.5041,75.5858 21.6708,75.2524 21,74.5C 20.5003,66.5069 20.3336,58.5069 20.5,50.5C 16.3706,50.0348 14.3706,47.7015 14.5,43.5C 16.2833,38.0445 18.95,33.0445 22.5,28.5 Z"/></g>
<g><path style="opacity:0.027" fill="#737373" d="M 83.5,39.5 C 83.8333,39.5 84.1667,39.5 84.5,39.5C 84.67,40.8221 84.3366,41.9887 83.5,43C 80.1983,44.0262 76.8649,44.8596 73.5,45.5C 74.5893,43.8829 76.256,43.0496 78.5,43C 76.1484,42.7599 74.1484,41.9265 72.5,40.5C 76.3315,41.9585 79.9982,41.6252 83.5,39.5 Z"/></g>
<g><path style="opacity:0.325" fill="#676767" d="M 40.5,34.5 C 42.5311,35.5387 43.8645,37.2054 44.5,39.5C 45.1667,39.5 45.5,39.8333 45.5,40.5C 47.6636,47.1511 45.3303,50.6511 38.5,51C 36.5734,48.4341 34.2401,47.9341 31.5,49.5C 31.1667,49.5 30.8333,49.5 30.5,49.5C 30.2852,47.8212 30.9519,46.8212 32.5,46.5C 33.3864,47.7759 34.3864,47.7759 35.5,46.5C 34.5435,44.9246 33.8769,43.258 33.5,41.5C 35.7306,43.0762 37.3972,45.2428 38.5,48C 41.025,48.8959 43.1917,48.3959 45,46.5C 44.599,42.1353 43.099,38.1353 40.5,34.5 Z"/></g>
<g><path style="opacity:0.2" fill="#636363" d="M 98.5,45.5 C 96.0909,44.9924 96.2576,44.3257 99,43.5C 102.026,44.5384 102.193,45.8718 99.5,47.5C 98.7025,47.0431 98.3691,46.3764 98.5,45.5 Z"/></g>
<g><path style="opacity:0.086" fill="#666666" d="M 61.5,32.5 C 62.391,33.1098 63.391,33.4431 64.5,33.5C 65.6954,37.7867 65.6954,42.12 64.5,46.5C 65.8333,46.5 67.1667,46.5 68.5,46.5C 68.5,50.1667 68.5,53.8333 68.5,57.5C 65.4816,57.3354 62.4816,57.502 59.5,58C 63.7342,60.7319 67.0675,64.2319 69.5,68.5C 65.1983,64.6742 60.865,60.8409 56.5,57C 59.8897,56.7537 63.223,56.2537 66.5,55.5C 67.6474,53.2351 67.8141,50.9018 67,48.5C 65.9505,47.4829 64.7839,47.3162 63.5,48C 58.796,52.5922 54.4626,52.0922 50.5,46.5C 51.67,42.8266 53.3366,39.4932 55.5,36.5C 55.3284,37.4916 55.6618,38.1583 56.5,38.5C 54.7474,41.256 53.9141,44.256 54,47.5C 56.3333,48.8333 58.6667,48.8333 61,47.5C 62.5883,44.8256 63.755,41.9922 64.5,39C 64.1373,36.8077 63.1373,34.9744 61.5,33.5C 61.5,33.1667 61.5,32.8333 61.5,32.5 Z"/></g>
<g><path style="opacity:0.129" fill="#696969" d="M 101.5,35.5 C 105.298,34.5166 109.298,34.1832 113.5,34.5C 113.261,36.4672 113.594,38.3005 114.5,40C 117.924,40.7466 121.257,40.58 124.5,39.5C 121.992,41.2371 118.992,42.0704 115.5,42C 118.001,44.3986 118.001,46.8986 115.5,49.5C 118.144,50.3958 120.81,51.2291 123.5,52C 124.252,52.6708 124.586,53.5041 124.5,54.5C 120.839,52.6687 117.006,51.3353 113,50.5C 112.333,49.8333 112.333,49.1667 113,48.5C 114.353,47.3147 115.52,45.9814 116.5,44.5C 112.591,43.2586 110.591,40.5919 110.5,36.5C 108.296,35.4949 105.296,35.1616 101.5,35.5 Z"/></g>
<g><path style="opacity:0.088" fill="#5b5b5b" d="M 175.5,25.5 C 176.814,27.9151 177.481,30.7485 177.5,34C 177.342,38.1919 177.009,42.3586 176.5,46.5C 178.144,46.2865 179.644,46.6198 181,47.5C 181.667,55.8333 181.667,64.1667 181,72.5C 180.578,74.4257 179.411,75.4257 177.5,75.5C 178.594,73.6406 179.427,71.6406 180,69.5C 180.667,62.8333 180.667,56.1667 180,49.5C 178.938,48.9032 177.772,48.5698 176.5,48.5C 167.149,51.2004 157.816,51.0338 148.5,48C 147.726,45.595 147.226,43.095 147,40.5C 142.101,35.4202 142.934,31.4202 149.5,28.5C 146.857,31.3396 146.024,34.673 147,38.5C 149.583,39.8742 152.083,41.3742 154.5,43C 156.167,43.6667 157.833,43.6667 159.5,43C 163.23,39.2795 163.23,35.4462 159.5,31.5C 159.833,31.5 160.167,31.5 160.5,31.5C 162.262,32.2623 163.262,33.5956 163.5,35.5C 163.232,37.099 163.566,38.4324 164.5,39.5C 162.898,44.2602 159.565,46.4269 154.5,46C 161.246,49.3944 167.913,49.2277 174.5,45.5C 176.525,38.8959 176.859,32.2292 175.5,25.5 Z M 148.5,41.5 C 148.019,45.3491 149.686,47.3491 153.5,47.5C 153.624,44.0512 151.957,42.0512 148.5,41.5 Z"/></g>
<g><path style="opacity:0.043" fill="#8a8a8a" d="M 156.5,29.5 C 157.609,29.5569 158.609,29.8902 159.5,30.5C 159.5,30.8333 159.5,31.1667 159.5,31.5C 157.973,31.573 156.973,30.9063 156.5,29.5 Z"/></g>
<g><path style="opacity:0.28" fill="#5d5d5d" d="M 72.5,55.5 C 72.8333,54.1667 73.1667,52.8333 73.5,51.5C 77.7923,50.4059 82.1256,49.9059 86.5,50C 81.8444,51.832 77.1777,53.6653 72.5,55.5 Z"/></g>
<g><path style="opacity:0.137" fill="#414141" d="M 119.5,59.5 C 119.167,59.5 118.833,59.5 118.5,59.5C 116.804,59.3146 115.471,58.4813 114.5,57C 104.167,56.3333 93.8333,56.3333 83.5,57C 80.0801,59.1526 78.7468,62.3193 79.5,66.5C 79.0282,70.0965 80.0282,73.0965 82.5,75.5C 80.9826,75.4894 79.8159,74.8228 79,73.5C 78.8247,68.9805 78.3247,64.6472 77.5,60.5C 78.2543,57.909 79.921,56.0757 82.5,55C 93.1667,54.3333 103.833,54.3333 114.5,55C 116.66,55.9959 118.327,57.4959 119.5,59.5 Z"/></g>
<g><path style="opacity:0.938" fill="#050505" d="M 155.5,57.5 C 155.337,59.8568 155.503,62.1902 156,64.5C 155.713,57.2749 158.879,54.9416 165.5,57.5C 167.443,61.3989 166.276,63.7323 162,64.5C 160.702,65.9456 160.535,67.2789 161.5,68.5C 161.5,70.1667 161.5,71.8333 161.5,73.5C 151.833,73.5 142.167,73.5 132.5,73.5C 130.362,68.3031 130.028,62.9698 131.5,57.5C 138.876,53.709 141.876,56.0423 140.5,64.5C 141.5,64.5 142.5,64.5 143.5,64.5C 143.045,54.3959 147.045,52.0625 155.5,57.5 Z"/></g>
<g><path style="opacity:0.925" fill="#040404" d="M 118.5,59.5 C 118.5,63.8333 118.5,68.1667 118.5,72.5C 117.167,72.5 116.5,73.1667 116.5,74.5C 105.346,75.4948 94.0123,75.8281 82.5,75.5C 80.0282,73.0965 79.0282,70.0965 79.5,66.5C 78.7468,62.3193 80.0801,59.1526 83.5,57C 93.8333,56.3333 104.167,56.3333 114.5,57C 115.471,58.4813 116.804,59.3146 118.5,59.5 Z M 92.5,64.5 C 96.5546,64.1758 100.555,64.5091 104.5,65.5C 102.5,65.8333 100.5,66.1667 98.5,66.5C 96.0478,66.4609 94.0478,65.7943 92.5,64.5 Z"/></g>
<g><path style="opacity:0.106" fill="#6b6b6b" d="M 30.5,55.5 C 30.8333,55.5 31.1667,55.5 31.5,55.5C 35.4994,56.0347 39.4994,56.7014 43.5,57.5C 42.2317,59.9513 40.565,60.9513 38.5,60.5C 38.9528,59.5416 39.6195,58.7083 40.5,58C 37.854,57.5026 35.1873,57.3359 32.5,57.5C 31.5,57.1667 30.8333,56.5 30.5,55.5 Z"/></g>
<g><path style="opacity:0.082" fill="#5f5f5f" d="M 133.5,52.5 C 133.833,52.5 134.167,52.5 134.5,52.5C 139.342,54.9206 144.175,54.9206 149,52.5C 155.035,53.8081 161.202,54.6415 167.5,55C 168.316,56.923 168.983,58.923 169.5,61C 169.293,62.9497 168.293,64.1164 166.5,64.5C 165.508,64.3284 164.842,64.6618 164.5,65.5C 164.715,67.1788 164.048,68.1788 162.5,68.5C 162.167,68.5 161.833,68.5 161.5,68.5C 160.535,67.2789 160.702,65.9456 162,64.5C 166.276,63.7323 167.443,61.3989 165.5,57.5C 158.879,54.9416 155.713,57.2749 156,64.5C 155.503,62.1902 155.337,59.8568 155.5,57.5C 147.045,52.0625 143.045,54.3959 143.5,64.5C 142.5,64.5 141.5,64.5 140.5,64.5C 141.876,56.0423 138.876,53.709 131.5,57.5C 130.028,62.9698 130.362,68.3031 132.5,73.5C 131.504,73.5858 130.671,73.2524 130,72.5C 129.17,66.8041 129.337,61.1375 130.5,55.5C 132.213,55.1207 133.213,54.1207 133.5,52.5 Z"/></g>
<g><path style="opacity:0.259" fill="#919191" d="M 71.5,56.5 C 72.0823,59.2724 73.0823,61.9391 74.5,64.5C 73.5041,64.5858 72.6708,64.2524 72,63.5C 71.5034,61.1902 71.3367,58.8568 71.5,56.5 Z"/></g>
<g><path style="opacity:0.153" fill="#838383" d="M 124.5,61.5 C 124.516,63.4841 123.516,64.4841 121.5,64.5C 120.287,64.2528 119.62,63.5862 119.5,62.5C 121.292,62.634 122.958,62.3007 124.5,61.5 Z"/></g>
<g><path style="opacity:0.341" fill="#4e4e4e" d="M 36.5,62.5 C 36.9382,62.4346 37.2716,62.6012 37.5,63C 35.4494,65.0202 33.1161,66.5202 30.5,67.5C 29.5655,68.5676 29.2322,69.901 29.5,71.5C 28.4138,71.38 27.7472,70.7133 27.5,69.5C 27.6382,66.1798 29.3049,64.5131 32.5,64.5C 33.6049,63.3995 34.9382,62.7329 36.5,62.5 Z"/></g>
<g><path style="opacity:0.064" fill="#7e7e7e" d="M 58.5,74.5 C 55.2689,72.7801 52.4356,70.4468 50,67.5C 47.1443,71.5164 43.3109,74.183 38.5,75.5C 41.6173,72.9887 44.784,70.322 48,67.5C 48.4505,64.8941 49.9505,63.5608 52.5,63.5C 52.3398,65.1992 52.5065,66.8659 53,68.5C 55.0396,70.3702 56.8729,72.3702 58.5,74.5 Z"/></g>
<g><path style="opacity:0.153" fill="#737373" d="M 69.5,71.5 C 69.1667,73.8333 67.8333,75.1667 65.5,75.5C 66.4023,73.6593 67.7356,72.326 69.5,71.5 Z"/></g>
<g><path style="opacity:0.208" fill="#888888" d="M 118.5,72.5 C 118.5,73.8333 117.833,74.5 116.5,74.5C 116.5,73.1667 117.167,72.5 118.5,72.5 Z"/></g>
<g><path style="opacity:0.09" fill="#b9b9b9" d="M 30.5,72.5 C 31.8333,73.1667 32.8333,74.1667 33.5,75.5C 32.391,75.4431 31.391,75.1098 30.5,74.5C 30.5,73.8333 30.5,73.1667 30.5,72.5 Z"/></g>
<g><path style="opacity:0.814" fill="#4e4e4e" d="M 162.5,72.5 C 166.43,73.5744 170.097,74.9077 173.5,76.5C 170.148,77.8848 166.815,77.5515 163.5,75.5C 162.614,74.675 162.281,73.675 162.5,72.5 Z"/></g>
</svg>
